<svg width="449" height="150" viewBox="0 0 449 150" fill="none" xmlns="http://www.w3.org/2000/svg">
<g clip-path="url(#clip0_158_13)">
<path d="M413.005 0.000243359H35.755C34.3799 0.000243359 33.0213 0.00024336 31.6498 0.00774336C30.5017 0.0152434 29.3628 0.0370309 28.2037 0.0553684C25.6857 0.0850001 23.1735 0.306529 20.6891 0.718031C18.2082 1.13849 15.805 1.93118 13.5608 3.06928C11.3194 4.21701 9.27129 5.70837 7.49089 7.48926C5.70113 9.26513 4.20924 11.3178 3.07256 13.5683C1.93275 15.8144 1.1424 18.2213 0.728812 20.7058C0.311291 23.1872 0.0866189 25.6972 0.0568125 28.2133C0.0220125 29.363 0.0183375 30.5166 0 31.6665V118.345C0.0183375 119.509 0.0220125 120.637 0.0568125 121.802C0.0866281 124.318 0.3113 126.828 0.728812 129.309C1.14126 131.795 1.93166 134.203 3.07256 136.45C4.20872 138.694 5.70083 140.738 7.49089 142.504C9.26454 144.293 11.3139 145.785 13.5608 146.924C15.805 148.065 18.2079 148.863 20.6891 149.29C23.1739 149.698 25.6858 149.919 28.2037 149.953C29.3628 149.978 30.5017 149.993 31.6498 149.993C33.0213 150 34.38 150 35.755 150H413.005C414.353 150 415.723 150 417.07 149.993C418.213 149.993 419.385 149.978 420.527 149.953C423.041 149.921 425.548 149.7 428.027 149.29C430.517 148.86 432.928 148.062 435.183 146.924C437.428 145.784 439.476 144.292 441.248 142.504C443.033 140.731 444.528 138.688 445.679 136.45C446.811 134.202 447.594 131.794 448 129.309C448.419 126.828 448.651 124.318 448.696 121.802C448.711 120.637 448.711 119.509 448.711 118.345C448.74 116.983 448.74 115.628 448.74 114.243V35.7607C448.74 34.3874 448.74 33.0251 448.711 31.6665C448.711 30.5166 448.711 29.363 448.696 28.2131C448.651 25.6968 448.419 23.1874 448 20.7056C447.593 18.2225 446.81 15.8159 445.679 13.5682C443.364 9.05723 439.693 5.38534 435.183 3.06894C432.928 1.93362 430.516 1.14114 428.027 0.717693C425.548 0.304379 423.041 0.0827725 420.527 0.0548434C419.385 0.0365434 418.213 0.0145684 417.07 0.00725586C415.723 -0.000244141 414.353 -0.000244141 413.005 -0.000244141V0.000243359Z" fill="#A6A6A6"/>
<path d="M31.6681 146.719C30.5256 146.719 29.4106 146.704 28.277 146.679C25.9287 146.648 23.5859 146.444 21.2678 146.067C19.1062 145.695 17.0123 145.002 15.055 144.012C13.1156 143.031 11.3468 141.744 9.81624 140.2C8.26352 138.675 6.9708 136.906 5.98933 134.963C4.99704 133.008 4.31031 130.912 3.95308 128.749C3.5673 126.424 3.35857 124.074 3.3287 121.718C3.30493 120.927 3.2738 118.293 3.2738 118.293V31.6663C3.2738 31.6663 3.30695 29.0735 3.32889 28.3117C3.35749 25.9593 3.565 23.6124 3.94963 21.2915C4.30752 19.1222 4.99478 17.0203 5.9876 15.0586C6.96547 13.1173 8.25101 11.347 9.79438 9.8163C11.336 8.27108 13.1105 6.97727 15.0532 5.98204C17.0059 4.99535 19.0959 4.30775 21.2531 3.94226C23.5788 3.56189 25.9298 3.35624 28.2863 3.32704L31.67 3.28125H417.052L420.476 3.32888C422.811 3.35662 425.141 3.56044 427.445 3.93859C429.624 4.30866 431.736 5.00106 433.711 5.99303C437.603 7.9987 440.77 11.1719 442.767 15.0678C443.744 17.0159 444.421 19.1006 444.774 21.2512C445.163 23.5912 445.381 25.9565 445.426 28.3283C445.437 29.3903 445.437 30.531 445.437 31.6663C445.467 33.0725 445.467 34.411 445.467 35.7605V114.243C445.467 115.605 445.467 116.935 445.437 118.275C445.437 119.495 445.437 120.612 445.422 121.761C445.378 124.091 445.164 126.414 444.781 128.712C444.431 130.891 443.748 133.003 442.756 134.974C441.768 136.896 440.483 138.65 438.948 140.171C437.416 141.723 435.644 143.017 433.7 144.005C431.731 145.003 429.622 145.698 427.445 146.067C425.127 146.446 422.784 146.65 420.436 146.679C419.337 146.704 418.187 146.719 417.07 146.719L413.005 146.726L31.6681 146.719Z" fill="black"/>
<path d="M92.8834 76.1275C92.9237 72.9975 93.7551 69.9286 95.3002 67.2062C96.8453 64.4839 99.0538 62.1966 101.72 60.5572C100.026 58.1379 97.7916 56.1469 95.1935 54.7423C92.5954 53.3377 89.7056 52.5583 86.7536 52.4659C80.4564 51.805 74.3516 56.234 71.1427 56.234C67.8717 56.234 62.9311 52.5316 57.6109 52.641C54.1696 52.7522 50.8158 53.7529 47.8762 55.5456C44.9367 57.3383 42.5117 59.8619 40.8374 62.8705C33.5849 75.4271 38.9946 93.881 45.9419 104.031C49.4178 109.001 53.4801 114.553 58.7955 114.356C63.997 114.14 65.9396 111.039 72.2183 111.039C78.4386 111.039 80.2612 114.356 85.6845 114.231C91.2659 114.14 94.7825 109.238 98.1364 104.221C100.634 100.68 102.556 96.7659 103.83 92.6243C100.588 91.2529 97.8206 88.9572 95.8739 86.0236C93.9272 83.09 92.8871 79.6482 92.8834 76.1275V76.1275Z" fill="white"/>
<path d="M82.6398 45.7908C85.683 42.1375 87.1823 37.4418 86.8192 32.7009C82.1699 33.1893 77.8752 35.4114 74.7908 38.9245C73.2828 40.6407 72.1278 42.6373 71.3919 44.8002C70.656 46.9631 70.3535 49.2498 70.5019 51.5297C72.8274 51.5536 75.1281 51.0496 77.2306 50.0555C79.333 49.0614 81.1826 47.6032 82.6398 45.7908Z" fill="white"/>
<path d="M158.634 101.774H140.883L136.621 114.36H129.102L145.915 67.7927H153.726L170.539 114.36H162.893L158.634 101.774ZM142.722 95.9654H156.792L149.856 75.5382H149.662L142.722 95.9654Z" fill="white"/>
<path d="M206.849 97.3864C206.849 107.937 201.202 114.716 192.68 114.716C190.521 114.828 188.375 114.331 186.485 113.281C184.596 112.23 183.041 110.669 181.998 108.776H181.837V125.592H174.868V80.4089H181.613V86.0558H181.741C182.833 84.1716 184.414 82.6184 186.318 81.5615C188.221 80.5045 190.376 79.9834 192.552 80.0536C201.169 80.0537 206.849 86.8652 206.849 97.3864ZM199.686 97.3864C199.686 90.5127 196.133 85.9936 190.714 85.9936C185.389 85.9936 181.807 90.6078 181.807 97.3864C181.807 104.227 185.389 108.809 190.714 108.809C196.134 108.809 199.686 104.322 199.686 97.3864Z" fill="white"/>
<path d="M244.217 97.3864C244.217 107.937 238.57 114.715 230.048 114.715C227.89 114.828 225.743 114.331 223.854 113.281C221.964 112.23 220.409 110.669 219.366 108.775H219.205V125.592H212.236V80.4088H218.981V86.0558H219.109C220.201 84.1716 221.782 82.6183 223.686 81.5614C225.589 80.5045 227.744 79.9834 229.92 80.0536C238.537 80.0536 244.217 86.8651 244.217 97.3864ZM237.054 97.3864C237.054 90.5126 233.502 85.9936 228.082 85.9936C222.757 85.9936 219.175 90.6078 219.175 97.3864C219.175 104.227 222.757 108.809 228.082 108.809C233.502 108.809 237.054 104.322 237.054 97.3864H237.054Z" fill="white"/>
<path d="M268.914 101.385C269.431 106.003 273.917 109.035 280.047 109.035C285.921 109.035 290.147 106.003 290.147 101.839C290.147 98.2249 287.598 96.0606 281.563 94.5774L275.528 93.1236C266.977 91.0581 263.007 87.0591 263.007 80.5698C263.007 72.5352 270.009 67.0164 279.952 67.0164C289.792 67.0164 296.538 72.5352 296.765 80.5698H289.73C289.309 75.9226 285.467 73.1175 279.853 73.1175C274.239 73.1175 270.397 75.9556 270.397 80.0865C270.397 83.3787 272.851 85.3159 278.853 86.799L283.984 88.0587C293.538 90.3183 297.508 94.1562 297.508 100.968C297.508 109.68 290.568 115.136 279.531 115.136C269.203 115.136 262.231 109.808 261.78 101.385L268.914 101.385Z" fill="white"/>
<path d="M312.548 72.3743V80.4089H319.005V85.9277H312.548V104.645C312.548 107.552 313.841 108.907 316.679 108.907C317.446 108.894 318.211 108.84 318.972 108.746V114.232C317.696 114.47 316.399 114.578 315.101 114.554C308.227 114.554 305.546 111.973 305.546 105.388V85.9277H300.61V80.4089H305.546V72.3743H312.548Z" fill="white"/>
<path d="M322.744 97.3865C322.744 86.7041 329.035 79.9915 338.846 79.9915C348.69 79.9915 354.952 86.704 354.952 97.3865C354.952 108.098 348.723 114.781 338.846 114.781C328.973 114.781 322.744 108.098 322.744 97.3865ZM347.851 97.3865C347.851 90.0586 344.493 85.7336 338.846 85.7336C333.199 85.7336 329.845 90.0916 329.845 97.3865C329.845 104.744 333.199 109.036 338.846 109.036C344.493 109.036 347.851 104.744 347.851 97.3865H347.851Z" fill="white"/>
<path d="M360.698 80.4088H367.345V86.1875H367.506C367.955 84.3827 369.013 82.7877 370.5 81.6707C371.987 80.5536 373.814 79.9825 375.672 80.0535C376.475 80.0507 377.276 80.1379 378.06 80.3135V86.8321C377.046 86.5223 375.988 86.38 374.929 86.411C373.916 86.3699 372.907 86.5484 371.97 86.9342C371.033 87.32 370.191 87.904 369.501 88.6461C368.811 89.3882 368.29 90.2708 367.973 91.2333C367.657 92.1958 367.552 93.2155 367.667 94.2222V114.36H360.698L360.698 80.4088Z" fill="white"/>
<path d="M410.191 104.388C409.254 110.552 403.251 114.781 395.572 114.781C385.695 114.781 379.565 108.164 379.565 97.5476C379.565 86.8982 385.728 79.9915 395.279 79.9915C404.672 79.9915 410.579 86.4441 410.579 96.7383V99.126H386.6V99.5471C386.489 100.797 386.646 102.055 387.059 103.24C387.472 104.424 388.132 105.507 388.996 106.417C389.86 107.326 390.908 108.042 392.069 108.515C393.231 108.989 394.48 109.21 395.733 109.164C397.38 109.318 399.033 108.937 400.445 108.076C401.858 107.216 402.955 105.922 403.574 104.388L410.191 104.388ZM386.633 94.2554H403.607C403.669 93.1319 403.499 92.0076 403.106 90.9531C402.714 89.8985 402.108 88.9365 401.326 88.1274C400.544 87.3183 399.603 86.6795 398.562 86.2512C397.522 85.8229 396.404 85.6143 395.279 85.6384C394.144 85.6317 393.019 85.8497 391.969 86.28C390.919 86.7103 389.964 87.3443 389.16 88.1454C388.357 88.9465 387.719 89.8989 387.286 90.9476C386.852 91.9963 386.63 93.1205 386.633 94.2554V94.2554Z" fill="white"/>
<path d="M141.848 32.7412C143.309 32.6364 144.775 32.8571 146.141 33.3875C147.506 33.9178 148.737 34.7446 149.744 35.8082C150.751 36.8718 151.51 38.1457 151.965 39.538C152.42 40.9302 152.561 42.4062 152.377 43.8594C152.377 51.0078 148.513 55.1169 141.848 55.1169H133.766V32.7412H141.848ZM137.241 51.9525H141.46C142.504 52.0149 143.549 51.8437 144.518 51.4514C145.488 51.0591 146.358 50.4555 147.065 49.6847C147.771 48.9138 148.298 47.995 148.604 46.9952C148.911 45.9954 148.992 44.9397 148.839 43.905C148.981 42.8743 148.892 41.8252 148.581 40.8327C148.269 39.8402 147.742 38.929 147.036 38.1642C146.331 37.3995 145.465 36.8002 144.501 36.4093C143.537 36.0184 142.499 35.8456 141.46 35.9032H137.241V51.9525Z" fill="white"/>
<path d="M156.303 46.6662C156.196 45.5565 156.323 44.4369 156.675 43.3791C157.027 42.3214 157.596 41.3488 158.346 40.5239C159.096 39.699 160.01 39.0398 161.029 38.5888C162.049 38.1378 163.151 37.9048 164.266 37.9048C165.381 37.9048 166.483 38.1378 167.502 38.5888C168.522 39.0398 169.436 39.699 170.186 40.5239C170.935 41.3488 171.504 42.3214 171.856 43.3791C172.208 44.4369 172.335 45.5565 172.229 46.6662C172.337 47.777 172.212 48.8982 171.861 49.9577C171.51 51.0172 170.941 51.9915 170.191 52.818C169.441 53.6446 168.527 54.3051 167.506 54.7571C166.486 55.2091 165.382 55.4426 164.266 55.4426C163.15 55.4426 162.046 55.2091 161.026 54.7571C160.005 54.3051 159.09 53.6446 158.34 52.818C157.591 51.9915 157.022 51.0172 156.671 49.9577C156.32 48.8982 156.194 47.777 156.303 46.6662V46.6662ZM168.801 46.6662C168.801 43.0059 167.157 40.8654 164.271 40.8654C161.375 40.8654 159.745 43.0059 159.745 46.6662C159.745 50.3558 161.375 52.4798 164.271 52.4798C167.157 52.4798 168.801 50.3411 168.801 46.6662H168.801Z" fill="white"/>
<path d="M193.4 55.1165H189.943L186.453 42.6799H186.189L182.714 55.1165H179.29L174.635 38.2305H178.015L181.04 51.1155H181.289L184.761 38.2305H187.958L191.43 51.1155H191.693L194.703 38.2305H198.036L193.4 55.1165Z" fill="white"/>
<path d="M201.951 38.2305H205.159V40.913H205.408C205.83 39.9495 206.543 39.1419 207.446 38.6026C208.349 38.0634 209.398 37.8193 210.447 37.9046C211.269 37.8428 212.094 37.9667 212.861 38.267C213.628 38.5674 214.318 39.0365 214.879 39.6397C215.44 40.2429 215.859 40.9646 216.103 41.7514C216.348 42.5382 216.412 43.37 216.292 44.1851V55.1163H212.959V45.0219C212.959 42.3083 211.78 40.9588 209.315 40.9588C208.757 40.9328 208.201 41.0278 207.683 41.2371C207.165 41.4465 206.699 41.7653 206.316 42.1718C205.933 42.5782 205.642 43.0626 205.464 43.5919C205.286 44.1211 205.224 44.6826 205.283 45.2379V55.1165H201.951L201.951 38.2305Z" fill="white"/>
<path d="M221.602 31.6387H224.934V55.1164H221.602V31.6387Z" fill="white"/>
<path d="M229.567 46.6663C229.461 45.5565 229.588 44.4368 229.94 43.379C230.292 42.3212 230.861 41.3487 231.611 40.5237C232.361 39.6987 233.275 39.0396 234.294 38.5886C235.314 38.1375 236.416 37.9045 237.531 37.9045C238.646 37.9045 239.748 38.1375 240.768 38.5886C241.787 39.0396 242.701 39.6987 243.451 40.5237C244.201 41.3487 244.77 42.3212 245.122 43.379C245.474 44.4368 245.601 45.5565 245.495 46.6663C245.603 47.7772 245.478 48.8983 245.127 49.9578C244.775 51.0173 244.207 51.9916 243.457 52.8181C242.706 53.6446 241.792 54.3051 240.771 54.7571C239.751 55.2091 238.647 55.4426 237.531 55.4426C236.415 55.4426 235.311 55.2091 234.291 54.7571C233.27 54.3051 232.355 53.6446 231.605 52.8181C230.855 51.9916 230.286 51.0173 229.935 49.9578C229.584 48.8983 229.459 47.7772 229.567 46.6663V46.6663ZM242.066 46.6663C242.066 43.006 240.421 40.8655 237.536 40.8655C234.639 40.8655 233.009 43.006 233.009 46.6663C233.009 50.3559 234.639 52.4799 237.536 52.4799C240.421 52.4799 242.066 50.3412 242.066 46.6663H242.066Z" fill="white"/>
<path d="M249.003 50.341C249.003 47.3015 251.267 45.5492 255.284 45.3001L259.858 45.0365V43.579C259.858 41.7955 258.679 40.7884 256.401 40.7884C254.541 40.7884 253.251 41.4714 252.882 42.6653H249.655C249.996 39.7649 252.724 37.9045 256.555 37.9045C260.788 37.9045 263.176 40.012 263.176 43.579V55.1164H259.968V52.7434H259.704C259.169 53.5946 258.417 54.2886 257.526 54.7544C256.635 55.2201 255.636 55.4411 254.632 55.3947C253.923 55.4684 253.207 55.3928 252.529 55.1726C251.851 54.9525 251.227 54.5928 250.697 54.1167C250.166 53.6405 249.742 53.0586 249.45 52.4082C249.158 51.7579 249.006 51.0537 249.003 50.341V50.341ZM259.858 48.8982V47.4864L255.734 47.7501C253.409 47.9057 252.354 48.6967 252.354 50.1854C252.354 51.7051 253.673 52.5895 255.485 52.5895C256.017 52.6433 256.553 52.5897 257.063 52.4318C257.573 52.274 258.046 52.0152 258.454 51.6708C258.862 51.3264 259.197 50.9034 259.438 50.4271C259.679 49.9508 259.822 49.4308 259.858 48.8982V48.8982Z" fill="white"/>
<path d="M267.556 46.6662C267.556 41.3305 270.299 37.9504 274.565 37.9504C275.62 37.9017 276.668 38.1545 277.585 38.6791C278.502 39.2037 279.25 39.9785 279.743 40.9129H279.992V31.6387H283.325V55.1164H280.131V52.4486H279.868C279.337 53.3767 278.562 54.1418 277.627 54.6611C276.692 55.1804 275.634 55.4341 274.565 55.3947C270.269 55.3949 267.556 52.0147 267.556 46.6662ZM270.998 46.6662C270.998 50.2477 272.686 52.4029 275.51 52.4029C278.319 52.4029 280.055 50.2167 280.055 46.6809C280.055 43.1616 278.3 40.9441 275.51 40.9441C272.705 40.9441 270.998 43.1139 270.998 46.6662H270.998Z" fill="white"/>
<path d="M297.113 46.6662C297.006 45.5565 297.133 44.4369 297.485 43.3791C297.837 42.3214 298.406 41.3488 299.156 40.5239C299.906 39.699 300.82 39.0398 301.839 38.5888C302.859 38.1378 303.961 37.9048 305.076 37.9048C306.191 37.9048 307.293 38.1378 308.312 38.5888C309.332 39.0398 310.246 39.699 310.996 40.5239C311.745 41.3488 312.314 42.3214 312.666 43.3791C313.018 44.4369 313.145 45.5565 313.039 46.6662C313.147 47.777 313.022 48.8982 312.671 49.9577C312.32 51.0172 311.751 51.9915 311.001 52.818C310.251 53.6446 309.336 54.3051 308.316 54.7571C307.296 55.2091 306.192 55.4426 305.076 55.4426C303.96 55.4426 302.856 55.2091 301.835 54.7571C300.815 54.3051 299.9 53.6446 299.15 52.818C298.4 51.9915 297.832 51.0172 297.481 49.9577C297.13 48.8982 297.004 47.777 297.113 46.6662V46.6662ZM309.611 46.6662C309.611 43.0059 307.967 40.8654 305.081 40.8654C302.185 40.8654 300.555 43.0059 300.555 46.6662C300.555 50.3558 302.185 52.4798 305.081 52.4798C307.967 52.4798 309.611 50.3411 309.611 46.6662Z" fill="white"/>
<path d="M317.51 38.2305H320.719V40.913H320.968C321.39 39.9495 322.103 39.1419 323.006 38.6026C323.909 38.0634 324.958 37.8193 326.007 37.9046C326.828 37.8428 327.653 37.9667 328.42 38.267C329.188 38.5674 329.878 39.0365 330.439 39.6397C331 40.2429 331.419 40.9646 331.663 41.7514C331.908 42.5382 331.972 43.37 331.851 44.1851V55.1163H328.519V45.0219C328.519 42.3083 327.34 40.9588 324.875 40.9588C324.317 40.9328 323.76 41.0278 323.243 41.2371C322.725 41.4465 322.259 41.7653 321.876 42.1718C321.493 42.5782 321.202 43.0626 321.024 43.5919C320.846 44.1211 320.784 44.6826 320.843 45.2379V55.1165H317.51V38.2305Z" fill="white"/>
<path d="M350.682 34.0264V38.3074H354.34V41.1144H350.682V49.7973C350.682 51.5661 351.411 52.3406 353.07 52.3406C353.494 52.3392 353.919 52.3135 354.34 52.2637V55.0395C353.742 55.1466 353.136 55.2036 352.528 55.2098C348.822 55.2098 347.346 53.9061 347.346 50.6505V41.1142H344.665V38.3072H347.346V34.0264H350.682Z" fill="white"/>
<path d="M358.892 31.6387H362.196V40.9441H362.459C362.902 39.9717 363.634 39.1594 364.556 38.6181C365.477 38.0768 366.543 37.8328 367.608 37.9192C368.425 37.8747 369.242 38.0112 370.001 38.3188C370.759 38.6265 371.441 39.0978 371.996 39.699C372.552 40.3003 372.968 41.0168 373.214 41.7973C373.461 42.5778 373.532 43.4031 373.423 44.2144V55.1165H370.088V45.0365C370.088 42.3393 368.831 40.9734 366.477 40.9734C365.904 40.9264 365.328 41.0051 364.789 41.2041C364.249 41.403 363.76 41.7174 363.355 42.1251C362.95 42.5329 362.639 43.0242 362.444 43.5648C362.249 44.1053 362.174 44.6819 362.225 45.2544V55.1164H358.892L358.892 31.6387Z" fill="white"/>
<path d="M392.855 50.5572C392.402 52.1004 391.421 53.4354 390.083 54.3284C388.746 55.2215 387.137 55.6158 385.538 55.4424C384.425 55.4718 383.32 55.2587 382.298 54.8179C381.276 54.3772 380.362 53.7194 379.62 52.8901C378.878 52.0609 378.325 51.08 378 50.0157C377.675 48.9514 377.585 47.829 377.738 46.7266C377.589 45.6208 377.681 44.496 378.005 43.4285C378.329 42.361 378.879 41.3756 379.617 40.5391C380.356 39.7026 381.265 39.0344 382.284 38.5799C383.303 38.1254 384.407 37.8951 385.523 37.9046C390.222 37.9046 393.056 41.1146 393.056 46.4171V47.5799H381.132V47.7667C381.08 48.3863 381.158 49.0101 381.361 49.5979C381.564 50.1857 381.887 50.7246 382.311 51.1801C382.734 51.6355 383.248 51.9975 383.82 52.2427C384.391 52.488 385.008 52.6111 385.629 52.6042C386.427 52.6999 387.234 52.5563 387.949 52.1918C388.665 51.8273 389.256 51.2582 389.647 50.557L392.855 50.5572ZM381.132 45.1153H389.661C389.703 44.5485 389.626 43.9793 389.435 43.4441C389.244 42.9089 388.943 42.4196 388.552 42.0076C388.16 41.5957 387.687 41.2702 387.162 41.052C386.637 40.8338 386.073 40.7279 385.505 40.7409C384.928 40.7336 384.356 40.8419 383.823 41.0592C383.289 41.2765 382.804 41.5984 382.396 42.0061C381.989 42.4138 381.667 42.8989 381.45 43.4329C381.233 43.9669 381.125 44.5389 381.132 45.1153H381.132Z" fill="white"/>
</g>
<defs>
<clipPath id="clip0_158_13">
<rect width="448.74" height="150" fill="white"/>
</clipPath>
</defs>
</svg>
