<svg width="548" height="598" viewBox="0 0 548 598" fill="none" xmlns="http://www.w3.org/2000/svg">
<path fill-rule="evenodd" clip-rule="evenodd" d="M540.406 312.453V312.453L541.31 315.975L542.154 319.517L542.936 323.078L543.656 326.655L544.311 330.249L544.903 333.857L545.429 337.478L545.889 341.112L546.283 344.756L546.61 348.41L546.871 352.071L547.065 355.74L547.193 359.414L547.255 363.092L547.251 366.773L547.181 370.457L547.046 374.141L546.848 377.824L546.585 381.506L546.26 385.186L545.872 388.862L545.423 392.533L544.913 396.199L544.343 399.858L543.715 403.51L543.028 407.154L542.284 410.789L541.484 414.415L540.627 418.029L539.716 421.633L538.751 425.224L537.733 428.803L536.661 432.368L535.538 435.92L534.363 439.456L533.137 442.977L531.861 446.482L530.534 449.97L529.158 453.44L527.733 456.892L526.258 460.324L524.734 463.736L523.161 467.127L521.54 470.496L519.869 473.842L518.15 477.164L516.381 480.461L514.562 483.732L512.695 486.974L510.777 490.188L508.81 493.373L506.793 496.525L504.726 499.646L502.61 502.733L500.444 505.784L498.228 508.8L495.963 511.778L493.649 514.717L491.286 517.617L488.874 520.475L486.415 523.291L483.907 526.063L481.353 528.79L478.751 531.471L476.104 534.105L473.412 536.691L470.675 539.228L467.894 541.714L465.07 544.149L462.205 546.533L459.298 548.863L456.352 551.14L453.366 553.362L450.344 555.529L447.284 557.641L444.19 559.696L441.061 561.695L437.9 563.636L434.707 565.52L431.484 567.347L428.233 569.115L424.955 570.825L421.651 572.477L418.322 574.071L414.971 575.606L411.598 577.084L408.205 578.503L404.794 579.865L401.366 581.169L397.921 582.417L394.463 583.607L390.992 584.742L387.509 585.82L384.017 586.843L380.515 587.812L377.006 588.726L373.491 589.586L369.971 590.393L366.447 591.147L362.92 591.85L359.392 592.503L355.864 593.105L352.337 593.659L348.813 594.166L345.292 594.628L341.776 595.044L338.266 595.418L334.763 595.75L331.268 596.043L327.782 596.297L324.305 596.515L320.839 596.698L317.384 596.847L313.941 596.965L310.511 597.053L307.093 597.112L303.689 597.144L300.298 597.151L296.922 597.133L293.559 597.093L290.211 597.032L286.877 596.951L283.558 596.851L280.252 596.733L276.961 596.598L273.684 596.447L270.42 596.282L267.17 596.102L263.934 595.91L260.71 595.704L257.499 595.486L254.3 595.257L251.112 595.017L247.937 594.766L244.772 594.505L241.617 594.233L238.473 593.953L235.339 593.663L232.213 593.364L229.097 593.056L225.988 592.74L222.888 592.416L219.794 592.084L216.708 591.744L213.627 591.396L210.553 591.039L207.484 590.673L204.419 590.298L201.36 589.912L198.305 589.515L195.253 589.106L192.206 588.684L189.162 588.248L186.122 587.796L183.085 587.327L180.051 586.84L177.021 586.333L173.995 585.805L170.973 585.255L167.955 584.68L164.942 584.079L161.935 583.451L158.933 582.793L155.937 582.105L152.949 581.385L149.969 580.63L146.997 579.841L144.036 579.014L141.084 578.149L138.145 577.244L135.219 576.299L132.306 575.311L129.409 574.279L126.528 573.204L123.664 572.082L120.82 570.915L117.996 569.7L115.193 568.437L112.413 567.126L109.657 565.767L106.927 564.358L104.223 562.9L101.548 561.392L98.9015 559.835L96.2858 558.228L93.7019 556.573L91.1507 554.869L88.6336 553.116L86.1514 551.317L83.7053 549.47L81.296 547.577L78.9244 545.639L76.5914 543.657L74.2978 541.631L72.0442 539.563L69.8316 537.454L67.6606 535.304L65.5323 533.114L63.4472 530.886L61.4064 528.619L59.4104 526.316L57.4603 523.976L55.5567 521.6L53.7003 519.19L51.892 516.747L50.1325 514.271L48.4223 511.763L46.7623 509.224L45.1529 506.656L43.5949 504.059L42.0886 501.434L40.6345 498.783L39.2332 496.107L37.8848 493.407L36.5898 490.684L35.3484 487.94L34.1607 485.176L33.0267 482.393L31.9465 479.592L30.9201 476.776L29.9471 473.945L29.0275 471.102L28.1607 468.246L27.3464 465.381L26.584 462.508L25.8729 459.627L25.2123 456.742L24.6014 453.852L24.0391 450.961L23.5244 448.069L23.0562 445.178L22.633 442.29L22.2535 439.406L21.9162 436.528L21.6193 433.657L21.361 430.794L21.1396 427.942L20.9531 425.102L20.7995 422.274L20.6769 419.461L20.583 416.662L20.5158 413.88L20.4732 411.115L20.453 408.369L20.453 405.641L20.4709 402.932L20.5046 400.244L20.5519 397.577L20.6104 394.931L20.678 392.306L20.7526 389.703L20.832 387.122L20.914 384.563L20.9965 382.025L21.0776 379.509L21.1553 377.014L21.2275 374.54L21.2925 372.087L21.3484 369.654L21.3935 367.24L21.4262 364.845L21.445 362.468L21.4482 360.108L21.4346 357.764L21.4029 355.435L21.3518 353.12L21.2803 350.819L21.1875 348.529L21.0723 346.251L20.9342 343.981L20.7723 341.72L20.5863 339.466L20.3756 337.217L20.1399 334.973L19.8791 332.731L19.593 330.491L19.2817 328.25L18.9453 326.009L18.5841 323.764L18.1983 321.516L17.7886 319.262L17.3554 317.001L16.8994 314.731L16.4214 312.453L15.9222 310.163L15.4029 307.862L14.8645 305.547L14.3081 303.218L13.7351 300.873L13.1471 298.511L12.5458 296.133L11.933 293.735L11.3108 291.319L10.6813 288.882L10.0467 286.425L9.40951 283.947L8.77208 281.448L8.13698 278.926L7.50682 276.383L6.88426 273.818L6.272 271.23L5.67278 268.621L5.08933 265.99L4.52439 263.338L3.9807 260.666L3.46097 257.973L2.96787 255.26L2.50402 252.529L2.07201 249.781L1.67432 247.015L1.3134 244.234L0.991575 241.438L0.711097 238.629L0.47411 235.808L0.28265 232.977L0.138634 230.136L0.0438612 227.288L0 224.433L0.00858944 221.574L0.0710327 218.712L0.188595 215.848L0.3624 212.985L0.593429 210.123L0.882522 207.264L1.23037 204.411L1.63753 201.564L2.10441 198.725L2.63127 195.895L3.21824 193.077L3.86532 190.271L4.57235 187.479L5.33903 184.703L6.16491 181.942L7.04939 179.2L7.99173 176.475L8.99107 173.771L10.0464 171.087L11.1567 168.424L12.3207 165.782L13.537 163.163L14.8044 160.567L16.1213 157.994L17.4862 155.443L18.8974 152.917L20.3535 150.413L21.8526 147.932L23.393 145.474L24.973 143.039L26.591 140.625L28.2451 138.233L29.9336 135.861L31.6549 133.509L33.4072 131.176L35.189 128.861L36.9986 126.564L38.8346 124.282L40.6955 122.015L42.5798 119.762L44.4864 117.522L46.4139 115.292L48.3613 113.073L50.3275 110.863L52.3116 108.66L54.3127 106.463L56.3301 104.272L58.3632 102.084L60.4114 99.8993L62.4743 97.7159L64.5518 95.5329L66.6434 93.3494L68.7492 91.1645L70.8692 88.9771L73.0035 86.7867L75.1523 84.5925L77.3159 82.394L79.4948 80.1906L81.6894 77.982L83.9003 75.7679L86.1282 73.5484L88.3737 71.3232L90.6377 69.0927L92.921 66.857L95.2244 64.6167L97.5492 62.3726L99.8963 60.1257L102.267 57.8773L104.663 55.6291L107.084 53.3828L109.533 51.1406L112.011 48.9047L114.518 46.6776L117.057 44.4621L119.628 42.2611L122.232 40.0776L124.87 37.9148L127.544 35.7762L130.254 33.6651L133 31.5852L135.784 29.5401L138.605 27.5335L141.464 25.5693L144.361 23.6511L147.296 21.7829L150.269 19.9684L153.278 18.2113L156.325 16.5155L159.408 14.8845L162.526 13.3219L165.679 11.8312L168.865 10.4157L172.082 9.07879L175.33 7.82341L178.606 6.65255L181.91 5.56896L185.239 4.57522L188.591 3.67374L191.964 2.86669L195.356 2.15605L198.765 1.5436L202.188 1.03087L205.623 0.619175L209.067 0.309605L212.518 0.103007L215.974 0L219.431 0.000966939L222.888 0.10605L226.341 0.315149L229.788 0.627918L233.226 1.04377L236.653 1.56189L240.066 2.18121L243.463 2.90045L246.842 3.71811L250.2 4.63246L253.534 5.64158L256.844 6.74334L260.126 7.93542L263.379 9.21533L266.6 10.5804L269.789 12.0278L272.944 13.5546L276.063 15.1577L279.144 16.8338L282.188 18.5797L285.192 20.3918L288.156 22.2668L291.08 24.2009L293.962 26.1907L296.802 28.2324L299.6 30.3223L302.356 32.4568L305.07 34.632L307.743 36.8445L310.373 39.0903L312.963 41.366L315.512 43.668L318.021 45.9928L320.491 48.3368L322.924 50.6969L325.319 53.0697L327.679 55.4522L330.005 57.8412L332.298 60.2339L334.559 62.6275L336.79 65.0195L338.993 67.4073L341.169 69.7887L343.32 72.1615L345.448 74.5236L347.554 76.8733L349.64 79.209L351.708 81.529L353.76 83.8322L355.798 86.1174L357.822 88.3836L359.835 90.6301L361.839 92.8562L363.835 95.0614L365.825 97.2454L367.811 99.4078L369.793 101.549L371.774 103.668L373.754 105.766L375.736 107.842L377.721 109.898L379.709 111.933L381.703 113.949L383.703 115.946L385.71 117.924L387.725 119.885L389.749 121.83L391.783 123.76L393.827 125.675L395.881 127.579L397.948 129.47L400.025 131.352L402.115 133.225L404.217 135.092L406.33 136.952L408.456 138.809L410.594 140.664L412.743 142.518L414.904 144.372L417.075 146.229L419.257 148.09L421.449 149.957L423.65 151.83L425.861 153.712L428.079 155.604L430.304 157.508L432.536 159.425L434.773 161.355L437.016 163.302L439.263 165.264L441.513 167.245L443.765 169.245L446.019 171.265L448.274 173.305L450.528 175.368L452.783 177.453L455.035 179.561L457.286 181.694L459.533 183.852L461.776 186.036L464.014 188.246L466.247 190.483L468.473 192.747L470.692 195.04L472.902 197.362L475.102 199.714L477.292 202.095L479.47 204.506L481.636 206.949L483.788 209.422L485.926 211.927L488.047 214.464L490.152 217.032L492.239 219.633L494.307 222.267L496.355 224.934L498.382 227.633L500.385 230.365L502.366 233.131L504.321 235.93L506.25 238.761L508.152 241.626L510.025 244.524L511.868 247.455L513.68 250.419L515.46 253.415L517.206 256.443L518.917 259.504L520.592 262.597L522.229 265.72L523.827 268.875L525.384 272.061L526.9 275.277L528.372 278.522L529.799 281.796L531.181 285.099L532.515 288.429L533.8 291.787L535.035 295.17L536.219 298.579L537.349 302.013L538.424 305.471L539.444 308.951L540.406 312.453" fill="url(#paint0_linear_247_379)"/>
<defs>
<linearGradient id="paint0_linear_247_379" x1="678.109" y1="-63.8969" x2="-609.951" y2="802.358" gradientUnits="userSpaceOnUse">
<stop stop-color="#C6E5F8"/>
<stop offset="0.244792" stop-color="#85BBD4" stop-opacity="0.5"/>
<stop offset="0.520833" stop-color="#00668B" stop-opacity="0.46"/>
</linearGradient>
</defs>
</svg>
