<svg width="509" height="150" viewBox="0 0 509 150" fill="none" xmlns="http://www.w3.org/2000/svg">
<g clip-path="url(#clip0_193_284)">
<path fill-rule="evenodd" clip-rule="evenodd" d="M489.501 150H18.8342C8.45386 150 0 141.546 0 131.25V18.75C0 8.41646 8.45386 0 18.8342 0H489.501C499.872 0 508.335 8.41646 508.335 18.75V131.25C508.335 141.546 499.872 150 489.501 150Z" fill="black"/>
<path fill-rule="evenodd" clip-rule="evenodd" d="M489.501 3.00187C498.208 3.00187 505.334 10.081 505.334 18.75V131.25C505.334 139.919 498.254 146.998 489.501 146.998H18.8342C10.1278 146.998 3.00187 139.919 3.00187 131.25V18.75C3.00187 10.081 10.081 3.00187 18.8342 3.00187C18.8342 3.00187 489.501 3.00187 489.501 3.00187ZM489.501 0H18.8342C8.45386 0 0 8.45387 0 18.75V131.25C0 141.584 8.45386 150 18.8342 150H489.501C499.872 150 508.335 141.584 508.335 131.25V18.75C508.335 8.45387 499.872 0 489.501 0Z" fill="#A6A6A6"/>
<path d="M267.793 49.6196C264.398 49.6196 261.537 48.4319 259.274 46.094C257.029 43.8216 255.776 40.6888 255.832 37.4906C255.832 34.0772 256.992 31.1876 259.274 28.8964C261.527 26.5585 264.389 25.3708 267.784 25.3708C271.141 25.3708 274.002 26.5585 276.303 28.8964C278.585 31.2624 279.744 34.152 279.744 37.4906C279.707 40.9132 278.547 43.8029 276.303 46.0847C274.049 48.4413 271.188 49.6196 267.793 49.6196ZM166.786 49.6196C163.466 49.6196 160.586 48.4507 158.229 46.1408C155.892 43.8403 154.704 40.9319 154.704 37.4999C154.704 34.0679 155.892 31.1595 158.229 28.859C160.539 26.5492 163.42 25.3802 166.786 25.3802C168.432 25.3802 170.031 25.7075 171.565 26.3715C173.07 27.0167 174.295 27.8958 175.203 28.9712L175.427 29.2424L172.893 31.73L172.631 31.4213C171.2 29.7194 169.283 28.8871 166.749 28.8871C164.486 28.8871 162.512 29.6913 160.885 31.2811C159.249 32.8802 158.416 34.975 158.416 37.5093C158.416 40.0435 159.249 42.1383 160.885 43.7374C162.512 45.3272 164.486 46.1314 166.749 46.1314C169.161 46.1314 171.191 45.3272 172.771 43.7374C173.706 42.8023 174.286 41.493 174.492 39.8378H166.365V36.3403H177.98L178.027 36.6583C178.111 37.2474 178.195 37.8553 178.195 38.4164C178.195 41.6427 177.223 44.2518 175.296 46.1782C173.108 48.46 170.246 49.6196 166.786 49.6196ZM301.085 49.124H297.503L286.534 31.571L286.627 34.7318V49.1146H283.045V25.8758H287.132L287.244 26.0535L297.559 42.5872L297.466 39.4357V25.8758H301.085V49.124V49.124ZM240.879 49.124H237.251V29.3733H230.957V25.8758H247.163V29.3733H240.87V49.124H240.879ZM228.002 49.124H224.383V25.8758H228.002V49.124ZM207.662 49.124H204.043V29.3733H197.749V25.8758H213.956V29.3733H207.662V49.124ZM195.458 49.0866H181.58V25.8758H195.458V29.3733H185.209V35.7511H194.458V39.2112H185.209V45.5891H195.458V49.0866ZM261.93 43.6907C263.547 45.3085 265.511 46.1221 267.793 46.1221C270.14 46.1221 272.057 45.3272 273.656 43.6907C275.246 42.1009 276.05 40.0155 276.05 37.4999C276.05 34.9843 275.246 32.8896 273.666 31.3091C272.048 29.6913 270.075 28.8777 267.802 28.8777C265.455 28.8777 263.538 29.6726 261.948 31.3091C260.358 32.8989 259.554 34.9843 259.554 37.4999C259.554 40.0155 260.349 42.1103 261.93 43.6907Z" fill="white"/>
<path fill-rule="evenodd" clip-rule="evenodd" d="M255.496 81.5836C246.658 81.5836 239.495 88.2887 239.495 97.5374C239.495 106.702 246.705 113.491 255.496 113.491C264.333 113.491 271.496 106.739 271.496 97.5374C271.496 88.2887 264.333 81.5836 255.496 81.5836ZM255.496 107.17C250.661 107.17 246.499 103.167 246.499 97.5C246.499 91.7488 250.67 87.8304 255.496 87.8304C260.33 87.8304 264.492 91.7488 264.492 97.5C264.501 103.204 260.33 107.17 255.496 107.17ZM220.586 81.5836C211.749 81.5836 204.585 88.2887 204.585 97.5374C204.585 106.702 211.796 113.491 220.586 113.491C229.423 113.491 236.587 106.739 236.587 97.5374C236.587 88.2887 229.414 81.5836 220.586 81.5836ZM220.586 107.17C215.751 107.17 211.59 103.167 211.59 97.5C211.59 91.7488 215.761 87.8304 220.586 87.8304C225.421 87.8304 229.582 91.7488 229.582 97.5C229.582 103.204 225.421 107.17 220.586 107.17ZM179.046 86.4557V93.2076H195.253C194.757 96.995 193.504 99.7912 191.587 101.708C189.211 104.084 185.546 106.665 179.084 106.665C169.124 106.665 161.334 98.6222 161.334 88.6627C161.334 78.7033 169.124 70.6609 179.084 70.6609C184.461 70.6609 188.379 72.7837 191.287 75.4956L196.075 70.7076C192.036 66.836 186.658 63.8716 179.121 63.8716C165.458 63.8716 153.993 75 153.993 88.6253C153.993 102.288 165.449 113.379 179.121 113.379C186.499 113.379 192.036 110.966 196.412 106.421C200.873 101.961 202.285 95.6671 202.285 90.5892C202.285 89.0087 202.163 87.5873 201.911 86.3809H179.037C179.046 86.3716 179.046 86.4557 179.046 86.4557ZM348.956 91.7114C347.618 88.1297 343.579 81.5461 335.293 81.5461C327.082 81.5461 320.256 88.0081 320.256 97.5C320.256 106.459 327.007 113.454 336.088 113.454C343.382 113.454 347.628 108.993 349.377 106.375L343.962 102.746C342.166 105.411 339.67 107.16 336.125 107.16C332.544 107.16 330.037 105.533 328.373 102.325L349.704 93.4882C349.704 93.4975 348.956 91.7114 348.956 91.7114ZM327.204 97.0418C327.036 90.8791 331.992 87.7463 335.536 87.7463C338.332 87.7463 340.661 89.121 341.456 91.1222L327.204 97.0418ZM309.875 112.5H316.88V65.6297H309.875V112.5ZM298.373 85.1278H298.12C296.54 83.2481 293.538 81.5461 289.704 81.5461C281.746 81.5461 274.414 88.5505 274.414 97.5468C274.414 106.506 281.708 113.426 289.704 113.426C293.491 113.426 296.54 111.714 298.12 109.797H298.373V112.089C298.373 118.176 295.118 121.459 289.872 121.459C285.58 121.459 282.915 118.373 281.83 115.792L275.742 118.335C277.491 122.544 282.157 127.753 289.863 127.753C298.074 127.753 305.031 122.918 305.031 111.125V82.5H298.41V85.1278C298.42 85.1278 298.373 85.1278 298.373 85.1278ZM290.33 107.17C285.496 107.17 281.456 103.13 281.456 97.5468C281.456 91.9171 285.496 87.8398 290.33 87.8398C295.118 87.8398 298.831 91.9638 298.831 97.5468C298.878 103.13 295.128 107.17 290.33 107.17ZM381.752 65.6297H365.003V112.5H372.008V94.7506H381.761C389.514 94.7506 397.135 89.1303 397.135 80.2089C397.135 71.2874 389.542 65.6297 381.752 65.6297ZM381.958 88.2045H371.998V72.1197H381.958C387.204 72.1197 390.168 76.4495 390.168 80.1621C390.168 83.8373 387.166 88.2045 381.958 88.2045ZM425.209 81.4994C420.122 81.4994 414.875 83.7531 412.706 88.6627L418.915 91.2438C420.253 88.6627 422.703 87.7837 425.293 87.7837C428.921 87.7837 432.587 89.9533 432.671 93.8248V94.3205C431.418 93.6097 428.669 92.525 425.377 92.525C418.672 92.525 411.873 96.1908 411.873 103.064C411.873 109.358 417.372 113.398 423.498 113.398C428.201 113.398 430.792 111.275 432.41 108.815H432.662V112.444H439.414V94.4888C439.414 86.1284 433.205 81.4994 425.209 81.4994ZM424.33 107.17C422.039 107.17 418.831 106.047 418.831 103.167C418.831 99.5387 422.834 98.164 426.247 98.164C429.333 98.164 430.792 98.8279 432.625 99.7444C432.12 103.953 428.566 107.132 424.33 107.17ZM464.046 82.5L456.004 102.83H455.751L447.419 82.5H439.882L452.385 110.92L445.259 126.714H452.553L471.789 82.5H464.046ZM400.998 112.5H408.002V65.6297H400.998V112.5Z" fill="white"/>
<path fill-rule="evenodd" clip-rule="evenodd" d="M39.1272 28.2513C38.0425 29.4202 37.4159 31.2064 37.4159 33.5443V116.465C37.4159 118.803 38.0425 120.589 39.1646 121.711L39.4545 121.964L85.9134 75.505V74.467L39.4171 27.9988L39.1272 28.2513Z" fill="url(#paint0_linear_193_284)"/>
<path fill-rule="evenodd" clip-rule="evenodd" d="M101.372 91.038L85.876 75.5423V74.4575L101.372 58.9619L101.708 59.1677L120.037 69.5854C125.284 72.5405 125.284 77.422 120.037 80.4145L101.708 90.8322L101.372 91.038Z" fill="url(#paint1_linear_193_284)"/>
<path fill-rule="evenodd" clip-rule="evenodd" d="M101.708 90.8323L85.8759 75L39.1272 121.749C40.8385 123.582 43.7095 123.787 46.9171 122.001L101.708 90.8323Z" fill="url(#paint2_linear_193_284)"/>
<path fill-rule="evenodd" clip-rule="evenodd" d="M101.708 59.1677L46.9171 28.0455C43.7095 26.2126 40.8292 26.465 39.1272 28.298L85.8759 75L101.708 59.1677Z" fill="url(#paint3_linear_193_284)"/>
<path opacity="0.2" fill-rule="evenodd" clip-rule="evenodd" d="M101.372 90.4956L46.9545 121.412C43.9152 123.161 41.2032 123.039 39.4545 121.449L39.1646 121.739L39.4545 121.992C41.2032 123.572 43.9152 123.703 46.9545 121.954L101.746 90.8323L101.372 90.4956Z" fill="black"/>
<path opacity="0.12" fill-rule="evenodd" clip-rule="evenodd" d="M120.037 79.8722L101.325 90.4956L101.661 90.8323L119.991 80.4146C122.618 78.9183 123.909 76.9545 123.909 75C123.75 76.7955 122.413 78.4975 120.037 79.8722Z" fill="black"/>
<path opacity="0.25" fill-rule="evenodd" clip-rule="evenodd" d="M46.9171 28.5878L120.037 70.1277C122.413 71.465 123.75 73.2138 123.956 74.9999C123.956 73.0454 122.665 71.0816 120.037 69.5853L46.9171 28.0454C41.6709 25.0436 37.4159 27.5498 37.4159 33.5442V34.0866C37.4159 28.0829 41.6709 25.6234 46.9171 28.5878Z" fill="white"/>
</g>
<defs>
<linearGradient id="paint0_linear_193_284" x1="81.7461" y1="32.6497" x2="7.32706" y2="52.4787" gradientUnits="userSpaceOnUse">
<stop stop-color="#00A0FF"/>
<stop offset="0.00657" stop-color="#00A1FF"/>
<stop offset="0.2601" stop-color="#00BEFF"/>
<stop offset="0.5122" stop-color="#00D2FF"/>
<stop offset="0.7604" stop-color="#00DFFF"/>
<stop offset="1" stop-color="#00E3FF"/>
</linearGradient>
<linearGradient id="paint1_linear_193_284" x1="126.879" y1="75.0001" x2="36.1408" y2="75.0001" gradientUnits="userSpaceOnUse">
<stop stop-color="#FFE000"/>
<stop offset="0.4087" stop-color="#FFBD00"/>
<stop offset="0.7754" stop-color="#FFA500"/>
<stop offset="1" stop-color="#FF9C00"/>
</linearGradient>
<linearGradient id="paint2_linear_193_284" x1="93.0993" y1="83.615" x2="33.356" y2="184.168" gradientUnits="userSpaceOnUse">
<stop stop-color="#FF3A44"/>
<stop offset="1" stop-color="#C31162"/>
</linearGradient>
<linearGradient id="paint3_linear_193_284" x1="27.3554" y1="0.670428" x2="54.0092" y2="45.5789" gradientUnits="userSpaceOnUse">
<stop stop-color="#32A071"/>
<stop offset="0.0685" stop-color="#2DA771"/>
<stop offset="0.4762" stop-color="#15CF74"/>
<stop offset="0.8009" stop-color="#06E775"/>
<stop offset="1" stop-color="#00F076"/>
</linearGradient>
<clipPath id="clip0_193_284">
<rect width="508.335" height="150" fill="white"/>
</clipPath>
</defs>
</svg>
